<?xml version="1.0" encoding="utf-8"?>
<!-- Generator: Adobe Illustrator 15.1.0, SVG Export Plug-In  -->
<!DOCTYPE svg PUBLIC "-//W3C//DTD SVG 1.1//EN" "http://www.w3.org/Graphics/SVG/1.1/DTD/svg11.dtd" [
	<!ENTITY ns_flows "http://ns.adobe.com/Flows/1.0/">
]>
<svg version="1.1"
	 xmlns="http://www.w3.org/2000/svg" xmlns:xlink="http://www.w3.org/1999/xlink" xmlns:a="http://ns.adobe.com/AdobeSVGViewerExtensions/3.0/"
	 x="0px" y="0px" width="512px" height="512px" viewBox="-17.5 -17.5 512 512" enable-background="new -17.5 -17.5 512 512"
	 xml:space="preserve">
<defs>
</defs>
<path fill="#333333" d="M458.366,391.289H443.46v-96.891H37.266v96.891H18.633C8.343,391.289,0,382.947,0,372.656V182.601
	c0-10.29,8.342-18.632,18.633-18.632h63.351l0.002-137.883C81.985,11.68,93.664,0,108.071,0h156.516v48.446H134.156
	c-6.173,0-7.452,1.279-7.452,7.454v126.702h227.32v-44.718h44.718v26.086h59.625c10.29,0,18.634,8.342,18.634,18.632v190.055
	C477,382.947,468.656,391.289,458.366,391.289z M37.266,208.688v14.907c0,4.116,3.337,7.454,7.453,7.454h14.906
	c4.116,0,7.453-3.337,7.453-7.454v-14.907c0-4.116-3.337-7.452-7.453-7.452H44.719C40.603,201.235,37.266,204.571,37.266,208.688z
	 M279.493,93.165V0l119.249,119.251h-93.163C291.172,119.251,279.493,107.571,279.493,93.165z M342.845,350.298H137.883
	c-6.174,0-11.18-5.006-11.18-11.181v-7.453c0-6.175,5.005-11.18,11.18-11.18h204.961c6.174,0,11.18,5.005,11.18,11.18v7.453
	C354.023,345.294,349.019,350.298,342.845,350.298z M354.023,391.29c0,6.175-5.005,11.179-11.18,11.179H137.883
	c-6.174,0-11.18-5.004-11.18-11.179v-7.454c0-6.175,5.005-11.18,11.18-11.18h204.961c6.174,0,11.18,5.006,11.18,11.18V391.29z
	 M96.892,424.828c0,6.176,1.279,7.453,7.452,7.453h14.906h257.134c6.174,0,7.453-1.277,7.453-7.453V309.305h44.718v141.61
	c0,14.406-11.679,26.086-26.086,26.086h-3.727H81.985h-3.727c-14.408,0-26.086-11.68-26.086-26.086v-141.61h44.718L96.892,424.828
	L96.892,424.828z"/>
</svg>
